<svg width="233" height="465" viewBox="0 0 233 465" fill="none" xmlns="http://www.w3.org/2000/svg">
<g clip-path="url(#clip0_44_1158)">
<path d="M0 342.388C60.8221 342.388 110.117 293.188 110.117 232.505C110.117 171.822 60.8221 122.612 0 122.612" stroke="#E8505B" stroke-opacity="0.7" stroke-miterlimit="10"/>
<path d="M0 352.565C66.4459 352.565 120.316 298.81 120.316 232.505C120.316 166.2 66.4459 112.435 0 112.435" stroke="#E8505B" stroke-opacity="0.7" stroke-miterlimit="10"/>
<path d="M0 362.742C72.0796 362.742 130.514 304.431 130.514 232.505C130.514 160.579 72.0796 102.268 0 102.268" stroke="#E8505B" stroke-opacity="0.7" stroke-miterlimit="10"/>
<path d="M0 372.919C77.7133 372.919 140.713 310.053 140.713 232.505C140.713 154.957 77.7133 92.0811 0 92.0811" stroke="#E8505B" stroke-opacity="0.7" stroke-miterlimit="10"/>
<path d="M0 383.096C83.347 383.096 150.912 315.675 150.912 232.505C150.912 149.335 83.347 81.904 0 81.904" stroke="#E8505B" stroke-opacity="0.7" stroke-miterlimit="10"/>
<path d="M0 393.273C88.9807 393.273 161.11 321.297 161.11 232.505C161.11 143.713 88.9807 71.737 0 71.737" stroke="#E8505B" stroke-opacity="0.7" stroke-miterlimit="10"/>
<path d="M0 403.44C94.6144 403.44 171.309 326.908 171.309 232.495C171.309 138.082 94.6144 61.5502 0 61.5502" stroke="#E8505B" stroke-opacity="0.7" stroke-miterlimit="10"/>
<path d="M0 413.617C100.248 413.617 181.507 332.53 181.507 232.495C181.507 132.46 100.248 51.3832 0 51.3832" stroke="#E8505B" stroke-opacity="0.7" stroke-miterlimit="10"/>
<path d="M0 423.794C105.872 423.794 191.706 338.152 191.706 232.495C191.706 126.838 105.872 41.2063 0 41.2063" stroke="#E8505B" stroke-opacity="0.7" stroke-miterlimit="10"/>
<path d="M0 433.971C111.506 433.971 201.905 343.764 201.905 232.495C201.905 121.226 111.506 31.0293 0 31.0293" stroke="#E8505B" stroke-opacity="0.7" stroke-miterlimit="10"/>
<path d="M0 444.397C117.279 444.397 212.353 349.525 212.353 232.495C212.353 115.465 117.279 20.6032 0 20.6032" stroke="#E8505B" stroke-opacity="0.7" stroke-miterlimit="10"/>
<path d="M0 454.325C122.773 454.325 222.302 355.007 222.302 232.495C222.302 109.983 122.773 10.6754 0 10.6754" stroke="#E8505B" stroke-opacity="0.7" stroke-miterlimit="10"/>
<path d="M0 464.502C128.407 464.502 232.501 360.629 232.501 232.495C232.501 104.361 128.407 0.498387 0 0.498387" stroke="#E8505B" stroke-opacity="0.7" stroke-miterlimit="10"/>
</g>
<defs>
<clipPath id="clip0_44_1158">
<rect width="233" height="465" fill="white" transform="matrix(1 0 0 -1 0 465)"/>
</clipPath>
</defs>
</svg>
